<?xml version="1.0" encoding="utf-8"?>
<!-- Generator: Adobe Illustrator 18.0.0, SVG Export Plug-In . SVG Version: 6.00 Build 0)  -->
<!DOCTYPE svg PUBLIC "-//W3C//DTD SVG 1.1//EN" "http://www.w3.org/Graphics/SVG/1.1/DTD/svg11.dtd">
<svg version="1.1" id="Layer_1" xmlns="http://www.w3.org/2000/svg" xmlns:xlink="http://www.w3.org/1999/xlink" x="0px" y="0px"
	 viewBox="0 0 119.1 130.6" enable-background="new 0 0 119.1 130.6" xml:space="preserve">
<g>
	<path fill="#FFFFFF" d="M59.5,0C28.5,0,3.3,25.2,3.3,56.2c0,31,25.2,56.2,56.2,56.2c31,0,56.2-25.2,56.2-56.2
		C115.7,25.2,90.6,0,59.5,0z M65.1,101.8V83.1l16.7-0.1v-9.6H65.1V65L92,65l0-10h0V36.9c-0.5-5.4-1.4-9-2.8-10.8c-4.2-6-9.5-9-16-9
		c-3.2,0-6.5,0.9-9.8,2.7c-1.4,1-2.6,2-3.7,3C56,19,51.5,17,46.3,17c-3.2,0-6.5,0.9-9.8,2.7c-6.1,4.3-9.2,9.5-9.2,15.7V55h10.9V37
		c0-1.8,0.2-3,0.5-3.7c1.5-3.5,3.9-5.3,7-5.3h0.7c0.9,0,1.7,0.1,2.5,0.4c3.2,1.3,4.9,3.6,5.3,7.1V55l0.1,0.1l-16.1,0L27.3,65h27
		v36.8c-22.9-2.6-40.7-22-40.7-45.6c0-25.4,20.6-45.9,45.9-45.9c25.4,0,45.9,20.6,45.9,45.9C105.5,79.7,87.9,99,65.1,101.8z
		 M65.1,55V37.1c0-1.8,0.2-3,0.5-3.7c1.5-3.5,3.9-5.3,7-5.3h0.7c0.9,0,1.7,0.1,2.5,0.4c3.6,1.4,5.4,4.3,5.4,8.6V55H65.1z"/>
	<path fill="#FFFFFF" d="M43.3,128.3c-0.3,0.2-0.8,0.4-1.3,0.4c-0.7,0-1.2-0.2-1.6-0.7c-0.4-0.4-0.7-1-0.7-1.8h6.5l0-0.5
		c0-1.5-0.4-2.7-1.2-3.5c-0.8-0.8-1.8-1.3-3.2-1.3c-1.3,0-2.4,0.4-3.2,1.3c-0.8,0.9-1.2,2-1.2,3.5c0,1.4,0.4,2.6,1.2,3.5
		c0.8,0.9,1.9,1.3,3.3,1.3c0.5,0,0.9,0,1.3-0.1c0.4-0.1,0.8-0.3,1.1-0.5c0.3-0.2,0.7-0.5,1-0.8c0.3-0.3,0.6-0.7,0.9-1.2l-1.8-1
		C44,127.6,43.7,128.1,43.3,128.3z M40.1,123.9c0.1-0.2,0.3-0.4,0.5-0.5c0.2-0.1,0.4-0.3,0.6-0.3c0.2-0.1,0.5-0.1,0.7-0.1
		c1.1,0,1.8,0.6,2.1,1.7h-4.2C39.9,124.3,40,124.1,40.1,123.9z M52.6,121c0.6,0,1.1,0.2,1.7,0.5l-1,1.9c-0.4-0.3-0.8-0.4-1.2-0.4
		c-1.1,0-1.7,0.9-1.7,2.6v4.7h-2.1v-9.1h2.1v0.8c0.4-0.4,0.7-0.7,1-0.8C51.9,121.1,52.2,121,52.6,121z M12.4,124.7v5.6h-2.1v-5
		c0-0.9-0.1-1.5-0.3-1.8c-0.2-0.4-0.6-0.5-1.1-0.5c-0.6,0-1,0.2-1.3,0.7c-0.3,0.4-0.4,1.1-0.4,2.1v4.7H5.2v-5c0-1.6-0.5-2.4-1.4-2.4
		c-0.6,0-1,0.2-1.3,0.7c-0.3,0.4-0.4,1.1-0.4,2.1v4.7H0v-9.1h2.1v0.8c0.4-0.4,0.7-0.7,1-0.9c0.3-0.2,0.7-0.2,1.1-0.2
		c1,0,1.8,0.4,2.4,1.3c0.7-0.9,1.5-1.3,2.7-1.3C11.4,121,12.4,122.2,12.4,124.7z M33.2,122.3c-0.8-0.9-1.8-1.3-2.8-1.3
		c-1.2,0-2.2,0.5-3,1.4c-0.8,0.9-1.2,2-1.2,3.4c0,1.4,0.4,2.5,1.2,3.5c0.8,0.9,1.8,1.4,3.1,1.4c1,0,2-0.4,2.8-1.2v0.9h2.1v-15.7
		h-2.1V122.3z M32.6,127.9c-0.5,0.5-1.1,0.8-1.9,0.8c-0.7,0-1.3-0.3-1.8-0.8c-0.5-0.5-0.7-1.3-0.7-2.1c0-0.8,0.2-1.5,0.7-2
		c0.5-0.5,1.1-0.8,1.8-0.8c0.8,0,1.4,0.3,1.9,0.8c0.5,0.6,0.7,1.3,0.7,2.1C33.3,126.7,33.1,127.4,32.6,127.9z M19.5,121
		c-1.3,0-2.5,0.5-3.4,1.4c-0.9,0.9-1.4,2-1.4,3.3c0,1.4,0.5,2.5,1.4,3.5c0.9,0.9,2.1,1.4,3.4,1.4c1.4,0,2.5-0.5,3.5-1.4
		c0.9-0.9,1.4-2.1,1.4-3.4c0-1.3-0.5-2.5-1.4-3.4C21.9,121.5,20.8,121,19.5,121z M21.4,127.9c-0.5,0.5-1.1,0.8-2,0.8
		c-0.8,0-1.5-0.3-2-0.8c-0.5-0.5-0.7-1.2-0.7-2.1c0-0.8,0.2-1.5,0.7-2.1c0.5-0.5,1.1-0.8,1.9-0.8c0.8,0,1.5,0.3,2,0.8
		c0.5,0.5,0.7,1.2,0.7,2.1C22.1,126.7,21.9,127.4,21.4,127.9z M99,121.3h2.1v5.2c0,0.7-0.1,1.4-0.3,1.9c-0.2,0.5-0.5,0.9-0.9,1.3
		c-0.7,0.6-1.6,0.9-2.7,0.9c-1.1,0-2-0.3-2.7-0.9c-0.4-0.4-0.7-0.8-0.9-1.3c-0.2-0.4-0.3-1-0.3-1.9v-5.2h2.1v5.2
		c0,1.5,0.6,2.2,1.8,2.2c1.2,0,1.8-0.7,1.8-2.2V121.3z M107.9,121c0.6,0,1.1,0.2,1.7,0.5l-1,1.9c-0.4-0.3-0.8-0.4-1.2-0.4
		c-1.1,0-1.7,0.9-1.7,2.6v4.7h-2.1v-9.1h2.1v0.8c0.4-0.4,0.7-0.7,1-0.8C107.2,121.1,107.5,121,107.9,121z M117.3,127
		c-0.4,0.7-0.8,1.1-1.1,1.4c-0.3,0.2-0.8,0.4-1.3,0.4c-0.7,0-1.2-0.2-1.6-0.7c-0.4-0.4-0.7-1-0.7-1.8h6.5l0-0.5
		c0-1.5-0.4-2.7-1.2-3.5c-0.8-0.8-1.8-1.3-3.2-1.3c-1.3,0-2.4,0.4-3.2,1.3c-0.8,0.9-1.2,2-1.2,3.5c0,1.4,0.4,2.6,1.2,3.5
		c0.8,0.9,1.9,1.3,3.3,1.3c0.5,0,0.9,0,1.3-0.1c0.4-0.1,0.8-0.3,1.1-0.5c0.3-0.2,0.7-0.5,1-0.8c0.3-0.3,0.6-0.7,0.9-1.2L117.3,127z
		 M112.9,123.9c0.1-0.2,0.3-0.4,0.5-0.5c0.2-0.1,0.4-0.3,0.6-0.3c0.2-0.1,0.5-0.1,0.7-0.1c1.1,0,1.8,0.6,2.1,1.7h-4.2
		C112.7,124.3,112.8,124.1,112.9,123.9z M90.3,121.3H92v2h-1.6v7.1h-2.1v-7.1h-0.9v-2h0.9v-3.3h2.1V121.3z M75.2,114.4
		c0.4,0,0.8,0.1,1.4,0.3v2.1l-0.2-0.1c-0.5-0.2-0.8-0.3-1.1-0.3c-0.4,0-0.6,0.1-0.8,0.4c-0.1,0.3-0.2,0.8-0.2,1.5v3h2.3v2h-2.3v7.1
		h-2.1v-7.1h-8.6l2-2h6.6v-3.5c0-1.1,0.2-1.9,0.6-2.4C73.4,114.7,74.2,114.4,75.2,114.4z M62.9,122c0.5,0.6,0.8,1.5,0.8,2.8v5.5
		h-2.1v-5c0-0.9-0.1-1.5-0.4-1.8c-0.2-0.3-0.7-0.5-1.3-0.5c-0.7,0-1.2,0.2-1.5,0.7c-0.3,0.5-0.4,1.2-0.4,2.4v4.4h-2.1v-9.1h2.1v0.8
		c0.7-0.7,1.6-1.1,2.5-1.1C61.5,121,62.3,121.3,62.9,122z M83.4,121.3h2.1v5.2c0,0.7-0.1,1.4-0.3,1.9c-0.2,0.5-0.5,0.9-0.9,1.3
		c-0.7,0.6-1.6,0.9-2.7,0.9c-1.1,0-2-0.3-2.7-0.9c-0.4-0.4-0.7-0.8-0.9-1.3c-0.2-0.4-0.3-1-0.3-1.9v-5.2h2.1v5.2
		c0,1.5,0.6,2.2,1.8,2.2s1.8-0.7,1.8-2.2V121.3z"/>
</g>
</svg>
